<?xml version="1.0" encoding="UTF-8" standalone="no"?>
<svg
   xmlns:dc="http://purl.org/dc/elements/1.1/"
   xmlns:cc="http://creativecommons.org/ns#"
   xmlns:rdf="http://www.w3.org/1999/02/22-rdf-syntax-ns#"
   xmlns:svg="http://www.w3.org/2000/svg"
   xmlns="http://www.w3.org/2000/svg"
   xmlns:sodipodi="http://sodipodi.sourceforge.net/DTD/sodipodi-0.dtd"
   xmlns:inkscape="http://www.inkscape.org/namespaces/inkscape"
   width="210mm"
   height="297mm"
   viewBox="0 0 210 297"
   version="1.1"
   id="svg8"
   inkscape:version="1.0 (4035a4f, 2020-05-01)"
   sodipodi:docname="file-alt-regular.svg">
  <defs
     id="defs2" />
  <sodipodi:namedview
     id="base"
     pagecolor="#ffffff"
     bordercolor="#666666"
     borderopacity="1.0"
     inkscape:pageopacity="0.0"
     inkscape:pageshadow="2"
     inkscape:zoom="0.7855219"
     inkscape:cx="612.16408"
     inkscape:cy="619.31304"
     inkscape:document-units="mm"
     inkscape:current-layer="layer1"
     inkscape:document-rotation="0"
     showgrid="false"
     inkscape:window-width="1252"
     inkscape:window-height="943"
     inkscape:window-x="106"
     inkscape:window-y="23"
     inkscape:window-maximized="0" />
  <metadata
     id="metadata5">
    <rdf:RDF>
      <cc:Work
         rdf:about="">
        <dc:format>image/svg+xml</dc:format>
        <dc:type
           rdf:resource="http://purl.org/dc/dcmitype/StillImage" />
        <dc:title />
      </cc:Work>
    </rdf:RDF>
  </metadata>
  <g
     inkscape:label="Layer 1"
     inkscape:groupmode="layer"
     id="layer1">
    <path
       style="fill:#ffffff;fill-opacity:1;stroke:#ffffff;stroke-width:0.723113"
       d="m 225.12642,529.89843 c 0,70.62924 0,141.25847 0,211.8877 12.05245,0.79712 24.76402,-0.0194 37.07077,0.1556 9.40998,-0.303 19.23523,0.38309 28.38792,-0.53269 0.12267,-70.50353 0.2446,-141.00707 0.36579,-211.51061 -12.11187,-0.85935 -24.88207,-0.12936 -37.25021,-0.37003 -9.46389,0.25246 -19.36969,-0.50097 -28.57427,0.37003 z"
       id="path912"
       transform="scale(0.26458333)" />
    <path
       style="fill:#ffffff;fill-opacity:1;stroke:#ffffff;stroke-width:0.723113"
       d="m 256.4392,423.93551 c -22.76667,-0.43644 -41.07042,24.56519 -34.88315,46.22982 3.85756,16.37346 19.4124,29.77137 36.59772,28.84826 11.89547,0.13345 23.59415,-5.61159 30.29166,-15.54552 9.65876,-12.15598 10.10229,-30.68144 0.76125,-43.12693 -5.71341,-8.72154 -14.9538,-15.27142 -25.54059,-16.05961 -2.39625,-0.29394 -4.81338,-0.40988 -7.22689,-0.34602 z"
       id="path914"
       transform="scale(0.26458333)" />
    <path
       style="fill:#ffffff;fill-opacity:1;stroke:#ffffff;stroke-width:0.723113"
       d="m 455.95771,524.89596 c -15.54856,-0.34296 -30.56199,6.525 -42.62413,15.93956 -6.27462,4.51073 -10.24108,11.41032 -15.80963,16.5172 -1.51636,-8.98729 -0.5363,-18.34229 -1.03383,-27.45994 -12.59456,-0.85027 -25.83607,-0.12151 -38.67949,-0.36438 -8.02108,0.24728 -16.4517,-0.49417 -24.21723,0.37003 0,70.62406 0,141.24811 0,211.87217 12.19475,0.86045 25.04935,0.12787 37.5002,0.37003 9.07701,-0.23839 18.52978,0.47238 27.37661,-0.34743 2.0661,-39.7939 -0.12846,-79.69788 1.87416,-119.49729 0.18468,-14.01977 6.04259,-29.23972 19.03822,-36.09069 9.70744,-5.09126 21.20627,-4.16532 31.73789,-2.9094 14.26978,4.20601 21.50809,19.92597 21.92361,33.87051 2.0634,40.9825 0.76464,82.05689 1.96172,123.06342 1.17954,4.16969 8.06465,0.83509 11.56821,1.86223 17.70598,-0.10512 35.41196,-0.20895 53.11794,-0.3129 0.81543,-12.11486 0.0308,-24.88365 0.23101,-37.24997 -0.43887,-36.55312 0.50192,-73.17734 -1.94982,-109.67195 -2.26832,-21.36142 -9.99548,-44.16948 -27.96414,-57.34768 -14.677,-10.43252 -33.28813,-13.39689 -50.947,-12.62482 -1.03479,-0.004 -2.06953,0.004 -3.1043,0.0113 z"
       id="path916"
       transform="scale(0.26458333)" />
    <g
       id="g981"
       transform="matrix(0.26458333,0,0,0.26458333,45.006217,64.438818)">
      <path
         fill="currentColor"
         d="m 288,248 v 28 c 0,6.6 -5.4,12 -12,12 H 108 c -6.6,0 -12,-5.4 -12,-12 v -28 c 0,-6.6 5.4,-12 12,-12 h 168 c 6.6,0 12,5.4 12,12 z m -12,72 H 108 c -6.6,0 -12,5.4 -12,12 v 28 c 0,6.6 5.4,12 12,12 h 168 c 6.6,0 12,-5.4 12,-12 v -28 c 0,-6.6 -5.4,-12 -12,-12 z M 384,131.9 V 464 c 0,26.5 -21.5,48 -48,48 H 48 C 21.5,512 0,490.5 0,464 V 48 C 0,21.5 21.5,0 48,0 H 252.1 C 264.8,0 277,5.1 286,14.1 L 369.9,98 c 9,8.9 14.1,21.2 14.1,33.9 z M 256,51.9 V 128 h 76.1 z M 336,464 V 176 H 232 c -13.3,0 -24,-10.7 -24,-24 V 48 H 48 v 416 z"
         id="path168" />
      <path
         id="path178"
         style="fill:#ffffff;stroke:#ffffff;stroke-width:1.09129"
         d="m 202.73438,47.119141 c -4.06255,-0.05557 -8.63524,0.830026 -12.38672,0.238281 H 48.478516 l -0.980469,0.478516 -0.121094,0.05859 c -0.696258,72.576552 -0.0999,145.369222 -0.298828,218.029302 v 197.52539 c 4.755159,3.28757 12.858948,0.4536 18.861328,1.40039 H 335.48828 c 3.28757,-4.75515 0.4536,-12.85895 1.40039,-18.86133 V 176.43945 c -4.75515,-3.28757 -12.85699,-0.45359 -18.85937,-1.40039 -30.1973,-0.48179 -61.05135,1.04389 -90.85742,-1.02148 -11.86289,-1.15869 -19.25184,-13.63307 -17.72266,-24.91992 -0.48369,-33.44338 -0.13053,-66.893618 -0.24024,-100.339848 -1.78318,-1.232838 -4.03708,-1.605332 -6.4746,-1.638671 z m 54.2832,5.177734 c -0.45193,-0.01002 -0.8535,0.283827 -1.29883,0.660156 -0.4723,24.735881 -0.0678,49.590969 -0.20313,74.373049 4.75517,3.28757 12.85895,0.4536 18.86133,1.40039 18.61777,-0.0822 37.24746,0.18694 55.85743,-0.29297 3.22302,-3.59751 -5.24804,-6.79768 -6.69532,-10.01758 -21.80176,-21.98577 -43.75,-43.827442 -65.63476,-65.730467 -0.32735,-0.27197 -0.61556,-0.386569 -0.88672,-0.392578 z M 171.18359,236.75781 c 15.56164,0.004 31.12473,0.0482 46.68555,0.0215 20.85431,0.56741 41.92733,-1.0031 62.61914,1.42382 8.7667,3.10102 5.98956,14.31482 6.53516,21.44922 -0.56094,7.15129 0.68085,15.08597 -1.16797,21.69532 -3.65648,6.26986 -9.99369,6.07979 -16.46485,5.5664 -55.01389,-0.16439 -110.12363,0.73371 -165.08007,-0.37109 -5.359663,-2.61993 -8.414771,-7.65916 -7.12305,-13.68945 0.850101,-10.90365 -2.958227,-22.88254 2.791016,-32.76758 7.230844,-4.22014 16.530014,-2.1644 24.523434,-3.09766 15.55993,-0.19629 31.12001,-0.234 46.68164,-0.23047 z m 5.00977,84.03125 c 15.57527,0.004 31.15166,0.0369 46.72656,0.0137 19.65642,0.59103 39.56358,-1.15519 59.00781,1.98047 6.98422,3.41695 4.61335,13.0731 5.11524,19.35938 -0.9654,8.40107 1.58177,18.09333 -3.11719,25.55859 -7.10961,5.18328 -16.68002,2.1267 -24.86523,3.33985 -51.19431,0.60001 -102.49594,1.25196 -153.625,-0.80469 -8.004144,-0.672 -8.410116,-10.19836 -8.269534,-16.21094 0.677915,-10.06891 -2.8415,-21.3787 3.152344,-30.23242 9.03395,-3.95238 19.54037,-2.0156 29.15039,-2.84766 15.57447,-0.13614 31.14934,-0.16044 46.72461,-0.15625 z" />
    </g>
    <path
       style="fill:#ff7f2a;fill-opacity:1;stroke:#ffffff;stroke-width:1.2026"
       d="m 373.33942,291.03864 c -51.9864,0.4724 -104.38279,-0.11864 -156.11204,0.92074 0.20401,138.463 0.40679,276.92599 0.60835,415.38899 10.6817,2.76777 22.59857,0.50885 33.71025,1.35478 84.89425,0.25 169.78856,-0.16538 254.68268,-0.29312 0.86581,-53.07897 0.12393,-106.82385 0.37111,-160.15906 -0.24455,-42.91359 0.48893,-86.22867 -0.36641,-128.89154 -36.57649,-0.82978 -73.28879,0.29698 -109.78154,-1.91899 -10.51789,-2.16007 -18.93604,-13.07094 -16.82943,-23.793 -0.61742,-34.1666 -0.24216,-68.75769 -1.47494,-102.66047 -1.60267,0.0172 -3.20535,0.0344 -4.80803,0.0517 z m 5.67475,189.51697 c 23.97523,0.46427 48.18777,-0.58038 72.02424,1.24957 7.75996,3.25038 5.1609,13.82738 5.85324,20.39481 -0.9705,7.89917 1.52767,16.9247 -2.31356,24.17173 -4.80833,7.24625 -14.60737,2.66469 -21.91684,3.95267 -52.32032,-0.28791 -104.79276,0.91818 -157.02339,-0.84049 -8.75416,-0.18116 -8.30658,-10.59096 -8.31719,-16.83858 0.62532,-9.41632 -1.52603,-19.88951 2.74814,-28.57118 7.51643,-4.4528 17.21703,-2.3054 25.56692,-3.28365 27.79011,-0.39824 55.5863,-0.21122 83.37844,-0.23488 z m 20.96558,84.01498 c 17.33245,0.85959 35.13904,-1.43049 52.14147,2.2854 7.27268,3.63183 3.98884,13.69339 4.74458,20.16903 -1.07661,8.05969 1.6737,18.11109 -3.88021,24.86022 -7.3554,3.61605 -16.46227,1.11796 -24.43912,2.20258 -50.3492,0.28144 -100.79115,1.14205 -151.09062,-0.27655 -5.45046,0.85717 -9.26999,-3.73104 -9.31777,-8.77285 -0.76153,-11.88658 -2.39151,-24.70823 1.42338,-36.14836 4.05724,-6.12718 12.97569,-2.31473 19.01521,-3.67214 37.12978,-0.64739 74.26855,-0.71412 111.40308,-0.64733 z"
       id="path985"
       transform="scale(0.26458333)" />
    <path
       style="fill:#ff7f2a;fill-opacity:1;stroke:#ffffff;stroke-width:0.84764"
       d="m 310.43836,291.65225 c -30.84228,0.0646 -61.6869,0.2427 -92.51858,1.11584 -0.80024,19.89021 -0.0234,40.41901 -0.21723,60.55477 0.43231,117.70394 0.19682,235.41966 1.40922,353.1151 7.11249,2.66771 15.4268,0.87765 22.96395,1.52961 87.82436,0.33598 175.64954,-0.0351 263.47382,-0.2416 0.86165,-19.03182 0.12291,-38.72445 0.36919,-58.01037 0,-76.57014 0,-153.1403 0,-229.71045 -19.5441,-0.89521 -39.7421,-0.0779 -59.54333,-0.52938 -17.94046,-0.59826 -36.15601,0.17336 -53.85337,-2.73205 -8.82714,-4.01192 -14.80655,-13.72937 -13.63996,-23.4937 -0.1072,-33.75152 -0.33061,-67.50489 -1.23016,-101.24679 -19.65648,-0.84199 -39.95158,-0.12829 -59.85463,-0.35833 -2.45298,0.002 -4.90595,0.005 -7.35892,0.007 z m 78.29082,188.22576 c 21.16206,0.45814 42.49747,-0.51049 63.52499,2.08102 6.325,2.91354 4.32053,11.52397 4.9683,17.07035 -0.53549,9.25963 1.32741,19.21748 -2.27804,27.91914 -5.25328,6.19402 -14.68422,3.17992 -21.70585,3.95969 -51.92518,-0.19782 -103.89443,0.0632 -155.7903,-1.06745 -4.84634,0.76217 -9.53173,-2.70336 -9.86541,-7.71154 -1.00561,-11.39107 -0.90149,-23.08721 0.50164,-34.42379 1.33983,-7.03996 10.3694,-6.59877 15.8131,-6.9691 34.93185,-0.87066 69.88997,-0.81219 104.83157,-0.85832 z m 16.5058,84.4511 c 15.47393,0.47063 31.2918,-0.81855 46.50763,2.01314 6.52217,1.6757 4.84426,10.10995 5.3039,15.07516 -0.26203,9.08015 0.65866,18.60439 -1.66335,27.36314 -2.59896,6.79127 -10.93721,4.86677 -16.54197,5.4397 -53.177,0.6907 -106.41778,1.93825 -159.56827,-0.15869 -3.98291,-0.0579 -9.3537,-0.0747 -10.56262,-4.8307 -2.31159,-10.96204 -1.76211,-22.58079 -1.24323,-33.77321 0.0399,-4.85794 2.88586,-10.46373 8.44652,-10.44811 34.242,-0.95757 68.6204,-0.38565 102.91373,-0.67112 8.80256,-0.0145 17.60511,-0.0214 26.40766,-0.009 z"
       id="path987"
       transform="scale(0.26458333)" />
    <path
       style="fill:#ff7f2a;fill-opacity:1;stroke:#ffffff;stroke-width:0.84764"
       d="m 426.2803,295.90535 c -1.59897,6.4465 -0.58922,13.75182 -1.06213,20.48378 0.15699,18.12475 -0.81064,36.33995 0.61678,54.41151 1.12869,3.04264 5.85452,0.94056 8.27744,1.76429 21.86193,0.22191 43.79775,0.94503 65.62452,-0.29913 3.66192,-0.49401 -0.36525,-3.9196 -1.38734,-5.1173 -22.64623,-24.10719 -45.86761,-47.74065 -70.20513,-70.14387 -0.58143,-0.35126 -1.11423,-1.14689 -1.86414,-1.09928 z"
       id="path989"
       transform="scale(0.26458333)" />
    <path
       transform="scale(0.26458333)"
       id="path24"
       d="m 324.20117,291.90332 c -35.33095,0.37965 -71.06013,0.44573 -106.12719,1.81756 0.71499,133.49985 0.0542,267.01513 1.91412,400.50417 0.85867,3.6997 -0.9097,9.29038 1.69613,12.17679 94.4916,1.94922 189.03301,0.75714 283.54458,1.12137 0.86382,-62.83228 0.12464,-126.32852 0.37047,-189.41677 -0.24828,-32.5343 0.4957,-65.4796 -0.37047,-97.75797 -36.89901,-0.49786 -74.07548,1.09804 -110.76434,-3.14529 -7.95816,-1.17906 -14.01397,-9.01072 -15.57442,-16.14143 -0.94619,-35.88066 -0.2396,-71.99336 -2.65589,-107.73372 -17.07684,-2.32615 -34.79256,-1.01655 -52.03299,-1.42471 z m 127.33871,188.38243 c 8.84734,5.89106 4.36303,17.84594 5.57948,26.51252 -1.37777,7.44679 3.64796,17.83305 -4.45367,22.19319 -6.565,4.76877 -16.30528,0.94986 -24.18967,2.15029 -51.83207,-0.3526 -103.70756,0.45099 -155.5097,-1.27959 -8.26905,-2.95221 -5.21489,-13.78234 -6.05582,-20.49295 0.83472,-8.35509 -1.51001,-17.84684 2.33119,-25.53538 9.27295,-4.63224 20.67404,-2.34644 30.80406,-3.34172 50.49592,-0.4093 100.99684,-0.11663 151.49413,-0.20636 z m -52.91815,83.48102 c 18.0788,0.95707 36.82341,-1.60628 54.4274,2.90162 6.70253,5.32836 2.93808,15.66383 4.06687,23.09622 -0.97447,7.34361 2.07367,17.38338 -4.35779,22.77297 -11.74102,3.68104 -24.63689,1.4408 -36.80242,2.50701 -46.55116,0.36722 -93.23881,1.38699 -139.7099,-1.06986 -7.12571,0.5017 -9.21898,-6.63023 -9.29169,-12.34003 -0.27344,-10.6842 -2.18806,-22.31674 1.8275,-32.48487 3.29347,-6.88336 12.80804,-2.6632 18.68285,-4.27661 37.04109,-1.00962 74.10419,-1.16788 111.15718,-1.10645 z"
       style="fill:#999999;stroke:#ffffff;stroke-width:1.27304" />
    <path
       transform="scale(0.26458333)"
       id="path26"
       d="m 425.92991,297.00542 c 0.23638,24.72189 -0.46588,49.81557 0.3481,74.30868 24.7154,1.17117 49.65178,2.05416 74.29625,-0.5122 -12.4165,-14.61116 -27.61671,-28.69424 -41.30451,-42.93296 -10.83977,-10.38719 -21.52927,-22.48086 -33.33984,-30.86352 z"
       style="fill:#999999;stroke:#ffffff;stroke-width:1.27304" />
  </g>
</svg>
