<?xml version="1.0" encoding="UTF-8" standalone="no"?>
<svg
   xmlns:dc="http://purl.org/dc/elements/1.1/"
   xmlns:cc="http://creativecommons.org/ns#"
   xmlns:rdf="http://www.w3.org/1999/02/22-rdf-syntax-ns#"
   xmlns:svg="http://www.w3.org/2000/svg"
   xmlns="http://www.w3.org/2000/svg"
   xmlns:sodipodi="http://sodipodi.sourceforge.net/DTD/sodipodi-0.dtd"
   xmlns:inkscape="http://www.inkscape.org/namespaces/inkscape"
   inkscape:version="1.0 (4035a4f, 2020-05-01)"
   sodipodi:docname="github-brands.svg"
   id="svg271"
   version="1.1"
   viewBox="0 0 496 512"
   role="img"
   class="svg-inline--fa fa-github fa-w-16"
   data-icon="github"
   data-prefix="fab"
   focusable="false"
   aria-hidden="true">
  <metadata
     id="metadata277">
    <rdf:RDF>
      <cc:Work
         rdf:about="">
        <dc:format>image/svg+xml</dc:format>
        <dc:type
           rdf:resource="http://purl.org/dc/dcmitype/StillImage" />
        <dc:title></dc:title>
      </cc:Work>
    </rdf:RDF>
  </metadata>
  <defs
     id="defs275" />
  <sodipodi:namedview
     inkscape:current-layer="svg271"
     inkscape:window-maximized="0"
     inkscape:window-y="23"
     inkscape:window-x="48"
     inkscape:cy="1092.1519"
     inkscape:cx="2663.767"
     inkscape:zoom="0.18348924"
     inkscape:pagecheckerboard="true"
     showgrid="false"
     id="namedview273"
     inkscape:window-height="922"
     inkscape:window-width="1514"
     inkscape:pageshadow="2"
     inkscape:pageopacity="0"
     guidetolerance="10"
     gridtolerance="10"
     objecttolerance="10"
     borderopacity="1"
     bordercolor="#666666"
     pagecolor="#ffffff" />
  <path
     id="path269"
     d="M165.9 397.4c0 2-2.3 3.6-5.2 3.6-3.3.3-5.6-1.3-5.6-3.6 0-2 2.3-3.6 5.2-3.6 3-.3 5.6 1.3 5.6 3.6zm-31.1-4.5c-.7 2 1.3 4.3 4.3 4.9 2.6 1 5.6 0 6.2-2s-1.3-4.3-4.3-5.2c-2.6-.7-5.5.3-6.2 2.3zm44.2-1.7c-2.9.7-4.9 2.6-4.6 4.9.3 2 2.9 3.3 5.9 2.6 2.9-.7 4.9-2.6 4.6-4.6-.3-1.9-3-3.2-5.9-2.9zM244.8 8C106.1 8 0 113.3 0 252c0 110.9 69.8 205.8 169.5 239.2 12.8 2.3 17.3-5.6 17.3-12.1 0-6.2-.3-40.4-.3-61.4 0 0-70 15-84.7-29.8 0 0-11.4-29.1-27.8-36.6 0 0-22.9-15.7 1.6-15.4 0 0 24.9 2 38.6 25.8 21.9 38.6 58.6 27.5 72.9 20.9 2.3-16 8.8-27.1 16-33.7-55.9-6.2-112.3-14.3-112.3-110.5 0-27.5 7.6-41.3 23.6-58.9-2.6-6.5-11.1-33.3 2.6-67.9 20.9-6.5 69 27 69 27 20-5.6 41.5-8.5 62.8-8.5s42.8 2.9 62.8 8.5c0 0 48.1-33.6 69-27 13.7 34.7 5.2 61.4 2.6 67.9 16 17.7 25.8 31.5 25.8 58.9 0 96.5-58.9 104.2-114.8 110.5 9.2 7.9 17 22.9 17 46.4 0 33.7-.3 75.4-.3 83.6 0 6.5 4.6 14.4 17.3 12.1C428.2 457.8 496 362.9 496 252 496 113.3 383.5 8 244.8 8zM97.2 352.9c-1.3 1-1 3.3.7 5.2 1.6 1.6 3.9 2.3 5.2 1 1.3-1 1-3.3-.7-5.2-1.6-1.6-3.9-2.3-5.2-1zm-10.8-8.1c-.7 1.3.3 2.9 2.3 3.9 1.6 1 3.6.7 4.3-.7.7-1.3-.3-2.9-2.3-3.9-2-.6-3.6-.3-4.3.7zm32.4 35.6c-1.6 1.3-1 4.3 1.3 6.2 2.3 2.3 5.2 2.6 6.5 1 1.3-1.3.7-4.3-1.3-6.2-2.2-2.3-5.2-2.6-6.5-1zm-11.4-14.7c-1.6 1-1.6 3.6 0 5.9 1.6 2.3 4.3 3.3 5.6 2.3 1.6-1.3 1.6-3.9 0-6.2-1.4-2.3-4-3.3-5.6-2z"
     fill="currentColor" />
  <path
     id="path292"
     d="M 169.5,491.2 328.2,491"
     style="fill:#ffffff;stroke:#000000;stroke-width:1px;stroke-linecap:butt;stroke-linejoin:miter;stroke-opacity:1" />
  <path
     id="path297"
     d="m 206.1353,278.51509 c -36.15089,0.0604 -72.30338,-0.0976 -108.453116,0.21646 -1.337337,-0.0106 -3.632405,-0.17616 -3.473933,1.80331 3.854072,15.61223 11.381909,30.68099 23.358879,41.64224 8.40075,7.87643 18.75761,13.37058 29.50746,17.31098 17.13374,6.07808 35.32037,8.29319 53.26824,10.38886 -8.18712,8.61767 -12.59293,20.17379 -14.36544,31.77965 -7.514,3.40065 -15.50751,5.55055 -23.79641,6.19696 -11.74076,0.96794 -23.92351,-2.36601 -33.03398,-9.96336 -6.14261,-4.89789 -10.67659,-11.32466 -14.6099,-18.02242 -8.13063,-13.57303 -22.721041,-22.9601 -38.339642,-25.16834 -3.429896,-0.21705 -7.013323,0.0566 -10.233912,1.32246 -2.382602,0.90957 -3.681566,3.79698 -2.509328,6.13289 1.767927,3.79767 5.188194,6.52291 8.370559,9.11096 2.848829,1.97734 6.052043,3.45801 8.567161,5.90772 9.205865,8.39172 15.025683,19.5951 20.039752,30.82618 2.91754,8.55855 8.23743,16.39573 15.68949,21.62296 10.5722,7.53487 23.64059,10.67071 36.43257,11.46123 10.87277,0.41636 21.83507,0.20622 32.55637,-1.8188 0.10068,20.16171 0.55099,40.3732 0.17191,60.50472 0.17331,4.08742 -2.42769,8.08847 -6.18761,9.67365 -1.55259,0.99206 -0.17676,3.1041 1.41493,2.62837 45.78145,-0.30055 91.56406,-0.27189 137.34623,-0.27158 1.80147,-0.13197 1.65655,-2.6013 0.0523,-2.98424 -3.1423,-1.66045 -5.3946,-4.91534 -5.5077,-8.50918 -0.31121,-13.51215 -0.0398,-27.24303 -0.0622,-40.83873 -0.0281,-16.94524 0.31861,-33.89689 -0.12908,-50.83813 -0.71066,-12.04775 -3.91812,-24.33977 -11.19616,-34.14863 -1.21289,-1.62877 -2.55102,-3.16099 -3.96776,-4.61499 20.78585,-2.4611 41.97297,-4.99346 61.38759,-13.29526 13.87141,-5.87552 26.36408,-15.40942 34.70823,-28.05102 5.7831,-8.64776 9.88898,-18.40036 12.3997,-28.46092 0.0233,-2.14403 -2.6602,-1.44443 -4.05964,-1.5469 -65.11517,9.7e-4 -130.23033,-0.002 -195.3455,0.003 z M 88.939728,345.06264 c 1.240798,0.0722 2.685873,0.98431 2.974197,2.20522 -1.004347,1.50012 -3.237486,0.16984 -4.039523,-0.87695 -0.640363,-0.85406 -0.40719,-1.28486 1.065326,-1.32827 z m 10.087188,8.53955 c 1.878154,0.1 3.641194,2.0796 3.526224,3.95237 -0.29186,1.15212 -1.75408,1.10274 -2.54709,0.47407 -1.425307,-0.70185 -3.130312,-2.83646 -1.733579,-4.29085 0.164703,-0.24651 0.517134,-0.0851 0.754445,-0.13559 z m 10.094934,12.80716 c 2.58638,0.60262 4.69112,4.07109 3.16305,6.47816 -2.4746,0.40277 -4.50094,-2.30788 -4.75523,-4.56299 -0.13849,-0.97984 0.5892,-1.89881 1.59218,-1.91517 z m 12.02414,14.32525 c 2.78452,0.17686 5.53853,3.19071 4.49665,5.97745 -1.42233,1.47476 -3.63102,-0.13555 -4.83368,-1.15394 -0.95661,-0.92583 -1.99556,-2.60141 -1.30163,-3.91265 0.46428,-0.46388 0.87211,-1.12855 1.63866,-0.91086 z m 18.39722,10.98836 c 2.00683,0.0883 4.84914,1.61241 4.40464,3.96011 -1.8042,2.11698 -5.09984,1.06174 -7.0297,-0.31621 -1.30125,-0.69449 -1.21804,-2.54746 0.14188,-3.11705 0.7448,-0.43161 1.63286,-0.56883 2.48318,-0.52685 z m 40.5037,0.7467 c 1.37137,0.0449 3.91577,0.69384 3.50251,2.504 -1.36357,2.46931 -5.2762,3.38705 -7.53767,1.66384 -1.08543,-1.75671 1.00046,-3.50707 2.55969,-3.95768 0.47593,-0.15027 0.97621,-0.22514 1.47547,-0.21016 z m -19.35843,2.76645 c 1.50024,-0.23387 3.66321,0.28208 3.86327,2.05221 -0.18398,2.14586 -2.99813,2.43358 -4.68647,2.40328 -1.55878,0.17859 -3.9232,-0.94932 -3.28944,-2.81488 0.64306,-1.62296 2.67721,-1.70254 4.11264,-1.64061 z"
     style="fill:#ffffff;stroke:#ffffff;stroke-width:0.24793" />
  <path
     id="path303"
     d="m 311.6,138.6 71.6,40.9"
     style="fill:none;stroke:#000000;stroke-width:1px;stroke-linecap:butt;stroke-linejoin:miter;stroke-opacity:1" />
  <path
     id="path305"
     d="m 373.93888,109.61156 c -15.93119,1.29282 -30.47275,9.02446 -44.2528,16.5791 -6.04172,3.71559 -12.53976,6.91016 -18.08576,11.31813 -0.23511,3.21495 4.74642,3.65132 6.70015,5.54012 21.33155,12.1003 42.42886,24.65377 64.04987,36.22155 3.53113,-0.0386 3.52115,-4.93921 4.4107,-7.47199 4.07042,-19.59452 2.66088,-40.36922 -4.61119,-59.0421 -1.42849,-3.16528 -5.26807,-3.1318 -8.21097,-3.14481 z"
     style="fill:#ffffff;stroke:#ffffff;stroke-width:0.658008" />
  <path
     id="path317"
     d="m 374.30046,110.86268 c -15.37486,0.63567 -29.40512,8.14229 -42.73307,15.16173 -6.99109,4.20362 -14.58972,7.72546 -20.73969,13.13639 -1.33191,0.96586 -3.66053,-0.92491 -5.38468,-0.92497 -30.2607,-7.48144 -61.95468,-8.44581 -92.75747,-4.03776 -8.87239,1.34038 -17.60299,3.43934 -26.32166,5.52918 -17.08505,-10.69892 -34.61163,-21.79595 -54.45119,-26.50256 -4.90427,-0.68257 -10.48663,-2.1555 -15.1318,0.19345 -3.16583,4.61839 -3.96714,10.52491 -5.57567,15.82331 -4.04304,17.24467 -3.7085,35.59876 1.84883,52.47713 -9.94793,11.26194 -18.952038,24.21142 -21.447178,39.34512 -2.757901,15.55911 -1.935753,31.55514 -0.04193,47.16405 0.890047,4.06894 0.902008,8.52652 2.643299,12.30711 5.103071,1.20206 10.617699,0.38036 15.864769,0.73585 98.26176,0.45807 196.52557,0.15393 294.78817,0.24422 2.73655,-1.34092 1.58583,-5.58718 2.64053,-8.1239 2.86402,-14.86127 2.86098,-30.12776 2.01253,-45.17999 -2.20304,-17.67034 -12.3794,-33.47055 -24.62431,-45.76034 3.22657,-3.1296 3.14359,-8.24909 4.25268,-12.35297 1.45846,-10.42389 1.37196,-21.07564 0.56608,-31.55369 -1.44831,-8.6291 -2.97032,-17.5957 -7.20427,-25.34607 -1.80164,-2.76071 -5.38234,-2.19547 -8.20397,-2.33529 z"
     style="fill:#ffffff;stroke:#ffffff;stroke-width:0.547216" />
</svg>
