<?xml version="1.0" encoding="UTF-8" standalone="no"?>
<svg
   xmlns:dc="http://purl.org/dc/elements/1.1/"
   xmlns:cc="http://creativecommons.org/ns#"
   xmlns:rdf="http://www.w3.org/1999/02/22-rdf-syntax-ns#"
   xmlns:svg="http://www.w3.org/2000/svg"
   xmlns="http://www.w3.org/2000/svg"
   xmlns:sodipodi="http://sodipodi.sourceforge.net/DTD/sodipodi-0.dtd"
   xmlns:inkscape="http://www.inkscape.org/namespaces/inkscape"
   sodipodi:docname="drawing.svg"
   inkscape:version="1.0 (4035a4f, 2020-05-01)"
   id="svg8"
   version="1.1"
   viewBox="0 0 210 297"
   height="297mm"
   width="210mm">
  <defs
     id="defs2" />
  <sodipodi:namedview
     inkscape:window-maximized="0"
     inkscape:window-y="23"
     inkscape:window-x="0"
     inkscape:window-height="943"
     inkscape:window-width="1252"
     showgrid="false"
     inkscape:document-rotation="0"
     inkscape:current-layer="layer1"
     inkscape:document-units="mm"
     inkscape:cy="544.88729"
     inkscape:cx="408.86668"
     inkscape:zoom="0.5693087"
     inkscape:pageshadow="2"
     inkscape:pageopacity="0.0"
     borderopacity="1.0"
     bordercolor="#666666"
     pagecolor="#ffffff"
     id="base" />
  <metadata
     id="metadata5">
    <rdf:RDF>
      <cc:Work
         rdf:about="">
        <dc:format>image/svg+xml</dc:format>
        <dc:type
           rdf:resource="http://purl.org/dc/dcmitype/StillImage" />
        <dc:title></dc:title>
      </cc:Work>
    </rdf:RDF>
  </metadata>
  <g
     id="layer1"
     inkscape:groupmode="layer"
     inkscape:label="Layer 1">
    <g
       style="fill:#2867b2;fill-opacity:1"
       transform="translate(-10.583335,8.3154752)"
       id="layer1-5"
       inkscape:label="Layer 1">
      <path
         style="stroke-width:0.264583;fill:#2867b2;fill-opacity:1"
         fill="currentColor"
         d="M 161.92501,86.632139 H 60.298548 c -4.65667,0 -8.44021,3.83646 -8.44021,8.54605 V 196.61944 c 0,4.70958 3.78354,8.54604 8.44021,8.54604 H 161.92501 c 4.65666,0 8.46666,-3.83646 8.46666,-8.54604 V 95.178189 c 0,-4.70959 -3.81,-8.54605 -8.46666,-8.54605 z M 87.682918,188.23215 h -17.56833 v -56.56792 h 17.59479 v 56.56792 z m -8.78417,-64.29376 c -5.63562,0 -10.18646,-4.57729 -10.18646,-10.18645 0,-5.60917 4.55084,-10.18646 10.18646,-10.18646 5.60917,0 10.18646,4.57729 10.18646,10.18646 0,5.63562 -4.55083,10.18645 -10.18646,10.18645 z m 74.638962,64.29376 h -17.56833 v -27.51667 c 0,-6.56167 -0.13229,-15.00188 -9.12813,-15.00188 -9.15458,0 -10.55687,7.14375 -10.55687,14.52563 v 27.99292 H 98.716038 V 131.66423 H 115.57 v 7.72583 h 0.23813 c 2.35479,-4.445 8.09625,-9.12812 16.64229,-9.12812 17.78,0 21.08729,11.72104 21.08729,26.96104 z"
         id="path76" />
      <path
         transform="scale(0.26458333)"
         id="path87"
         d="m 265.04939,497.85376 c 0,70.97079 0,141.94157 0,212.91236 21.65407,0.8627 43.97186,0.12305 65.88114,0.36964 0.86267,-23.47385 0.12307,-47.61138 0.36963,-71.34043 0,-47.31385 0,-94.62771 0,-141.94157 -21.65407,-0.8627 -43.97185,-0.12305 -65.88113,-0.36964 z"
         style="fill:#2867b2;stroke:#ffffff;stroke-width:0.909882;fill-opacity:1" />
      <path
         transform="scale(0.26458333)"
         id="path89"
         d="m 294.92977,392.40699 c -13.9702,-0.53186 -26.25843,10.16438 -31.79611,22.3543 -7.57286,16.28095 -1.42069,37.14366 13.69977,46.81804 9.35729,7.33925 22.16782,7.56927 33.23201,4.8142 19.88384,-6.27038 32.27161,-30.34918 23.8446,-49.86474 -5.44977,-13.94994 -19.59633,-25.84108 -35.21987,-24.13377 -1.25345,-0.007 -2.50694,0.0104 -3.7604,0.012 z"
         style="fill:#2867b2;stroke:#ffffff;stroke-width:0.909882;fill-opacity:1" />
      <path
         transform="scale(0.26458333)"
         id="path91"
         d="m 500.36403,492.52776 c -23.49301,-0.29544 -47.06179,10.91091 -60.25124,30.60544 -0.93741,1.29402 -3.27963,5.24006 -2.90558,1.30795 -0.82347,-8.93272 0.19812,-18.26899 -0.73039,-26.95703 -20.99833,0.24916 -42.40795,-0.49465 -63.15149,0.36964 0,70.97079 0,141.94157 0,212.91236 21.62331,0.86262 43.91029,0.12297 65.78873,0.36964 0.97655,-23.69998 0.36023,-48.06477 0.72786,-72.02094 0.62647,-19.88641 -0.97585,-40.03339 2.05865,-59.736 2.93029,-11.42038 10.26407,-22.34379 21.8425,-26.22308 8.46709,-2.58493 17.96428,-2.81908 26.67446,-1.06449 13.59332,3.30427 20.78603,17.36087 21.98521,30.37031 3.01122,34.53776 1.4891,69.32433 1.94339,103.96522 0.25602,8.18278 -0.49332,16.78227 0.38053,24.70898 21.8964,0 43.7928,0 65.6892,0 0.72527,-22.94473 -0.16591,-46.55086 -0.0622,-69.74991 -0.60803,-26.7332 0.5958,-53.59704 -2.02059,-80.23519 -3.1509,-22.44568 -11.74009,-46.90397 -32.6973,-58.52265 -13.65641,-7.7357 -29.77865,-10.0755 -45.27174,-10.10025 z"
         style="fill:#2867b2;stroke:#ffffff;stroke-width:0.909882;fill-opacity:1" />
    </g>
    <path
       transform="scale(0.26458333)"
       id="path912"
       d="m 225.12642,529.89843 c 0,70.62924 0,141.25847 0,211.8877 12.05245,0.79712 24.76402,-0.0194 37.07077,0.1556 9.40998,-0.303 19.23523,0.38309 28.38792,-0.53269 0.12267,-70.50353 0.2446,-141.00707 0.36579,-211.51061 -12.11187,-0.85935 -24.88207,-0.12936 -37.25021,-0.37003 -9.46389,0.25246 -19.36969,-0.50097 -28.57427,0.37003 z"
       style="fill:#ffffff;fill-opacity:1;stroke:#ffffff;stroke-width:0.723113" />
    <path
       transform="scale(0.26458333)"
       id="path914"
       d="m 256.4392,423.93551 c -22.76667,-0.43644 -41.07042,24.56519 -34.88315,46.22982 3.85756,16.37346 19.4124,29.77137 36.59772,28.84826 11.89547,0.13345 23.59415,-5.61159 30.29166,-15.54552 9.65876,-12.15598 10.10229,-30.68144 0.76125,-43.12693 -5.71341,-8.72154 -14.9538,-15.27142 -25.54059,-16.05961 -2.39625,-0.29394 -4.81338,-0.40988 -7.22689,-0.34602 z"
       style="fill:#ffffff;fill-opacity:1;stroke:#ffffff;stroke-width:0.723113" />
    <path
       transform="scale(0.26458333)"
       id="path916"
       d="m 455.95771,524.89596 c -15.54856,-0.34296 -30.56199,6.525 -42.62413,15.93956 -6.27462,4.51073 -10.24108,11.41032 -15.80963,16.5172 -1.51636,-8.98729 -0.5363,-18.34229 -1.03383,-27.45994 -12.59456,-0.85027 -25.83607,-0.12151 -38.67949,-0.36438 -8.02108,0.24728 -16.4517,-0.49417 -24.21723,0.37003 0,70.62406 0,141.24811 0,211.87217 12.19475,0.86045 25.04935,0.12787 37.5002,0.37003 9.07701,-0.23839 18.52978,0.47238 27.37661,-0.34743 2.0661,-39.7939 -0.12846,-79.69788 1.87416,-119.49729 0.18468,-14.01977 6.04259,-29.23972 19.03822,-36.09069 9.70744,-5.09126 21.20627,-4.16532 31.73789,-2.9094 14.26978,4.20601 21.50809,19.92597 21.92361,33.87051 2.0634,40.9825 0.76464,82.05689 1.96172,123.06342 1.17954,4.16969 8.06465,0.83509 11.56821,1.86223 17.70598,-0.10512 35.41196,-0.20895 53.11794,-0.3129 0.81543,-12.11486 0.0308,-24.88365 0.23101,-37.24997 -0.43887,-36.55312 0.50192,-73.17734 -1.94982,-109.67195 -2.26832,-21.36142 -9.99548,-44.16948 -27.96414,-57.34768 -14.677,-10.43252 -33.28813,-13.39689 -50.947,-12.62482 -1.03479,-0.004 -2.06953,0.004 -3.1043,0.0113 z"
       style="fill:#ffffff;fill-opacity:1;stroke:#ffffff;stroke-width:0.723113" />
  </g>
</svg>
